<svg xmlns="http://www.w3.org/2000/svg" viewBox="0 0 960 640" role="img" aria-labelledby="stageTitle stageDesc">
  <title id="stageTitle">Stage display placeholder</title>
  <desc id="stageDesc">A stylized stage display and remote control preview.</desc>
  <rect width="960" height="640" rx="32" fill="#0a211f"/>
  <rect x="48" y="48" width="864" height="544" rx="28" fill="#133d39"/>
  <rect x="92" y="104" width="556" height="360" rx="28" fill="#fef7ea"/>
  <rect x="680" y="104" width="188" height="360" rx="28" fill="#214a45"/>
  <rect x="92" y="492" width="776" height="56" rx="24" fill="#214a45"/>
  <rect x="126" y="142" width="488" height="26" rx="13" fill="#d97706" opacity="0.82"/>
  <rect x="126" y="186" width="286" height="20" rx="10" fill="#173330" opacity="0.18"/>
  <rect x="126" y="250" width="488" height="98" rx="22" fill="#efe3cf"/>
  <rect x="126" y="370" width="488" height="52" rx="20" fill="#0f766e" opacity="0.12"/>
  <rect x="706" y="134" width="136" height="20" rx="10" fill="#2dd4bf" opacity="0.85"/>
  <rect x="706" y="176" width="108" height="14" rx="7" fill="#fff7ec" opacity="0.55"/>
  <rect x="706" y="222" width="136" height="76" rx="18" fill="#fff7ec" opacity="0.1"/>
  <rect x="706" y="316" width="136" height="76" rx="18" fill="#fff7ec" opacity="0.1"/>
  <rect x="126" y="510" width="222" height="20" rx="10" fill="#fff7ec" opacity="0.55"/>
  <rect x="384" y="510" width="146" height="20" rx="10" fill="#d97706" opacity="0.75"/>
  <rect x="560" y="510" width="120" height="20" rx="10" fill="#2dd4bf" opacity="0.7"/>
</svg>