<svg xmlns="http://www.w3.org/2000/svg" viewBox="0 0 960 640" role="img" aria-labelledby="workspaceTitle workspaceDesc">
  <title id="workspaceTitle">Hamro Church workspace placeholder</title>
  <desc id="workspaceDesc">A stylized preview of the Hamro Church editor with saffron and teal accents.</desc>
  <defs>
    <linearGradient id="bg" x1="0" x2="1" y1="0" y2="1">
      <stop offset="0" stop-color="#103e3a"/>
      <stop offset="1" stop-color="#0f766e"/>
    </linearGradient>
    <linearGradient id="screen" x1="0" x2="1" y1="0" y2="1">
      <stop offset="0" stop-color="#fff7ec"/>
      <stop offset="1" stop-color="#f4ede2"/>
    </linearGradient>
  </defs>
  <rect width="960" height="640" rx="32" fill="url(#bg)"/>
  <rect x="38" y="38" width="884" height="564" rx="28" fill="#173330" opacity="0.88"/>
  <rect x="66" y="66" width="828" height="44" rx="18" fill="#224b46"/>
  <circle cx="94" cy="88" r="8" fill="#f59e0b"/>
  <circle cx="122" cy="88" r="8" fill="#fbbf24"/>
  <circle cx="150" cy="88" r="8" fill="#2dd4bf"/>
  <rect x="66" y="134" width="202" height="430" rx="24" fill="#204642"/>
  <rect x="290" y="134" width="336" height="430" rx="24" fill="url(#screen)"/>
  <rect x="648" y="134" width="246" height="204" rx="24" fill="#204642"/>
  <rect x="648" y="360" width="246" height="204" rx="24" fill="#1d403c"/>
  <rect x="92" y="164" width="150" height="16" rx="8" fill="#2ed1bc" opacity="0.68"/>
  <rect x="92" y="196" width="132" height="14" rx="7" fill="#fff7ec" opacity="0.55"/>
  <rect x="92" y="236" width="150" height="54" rx="18" fill="#fff7ec" opacity="0.1"/>
  <rect x="92" y="306" width="150" height="54" rx="18" fill="#fff7ec" opacity="0.1"/>
  <rect x="92" y="376" width="150" height="54" rx="18" fill="#fff7ec" opacity="0.1"/>
  <rect x="92" y="446" width="150" height="54" rx="18" fill="#fff7ec" opacity="0.1"/>
  <rect x="324" y="164" width="268" height="24" rx="12" fill="#d97706" opacity="0.84"/>
  <rect x="324" y="210" width="230" height="18" rx="9" fill="#173330" opacity="0.18"/>
  <rect x="324" y="262" width="126" height="146" rx="24" fill="#f4d4a2"/>
  <rect x="466" y="262" width="126" height="146" rx="24" fill="#b7ece5"/>
  <rect x="324" y="430" width="268" height="100" rx="24" fill="#173330" opacity="0.08"/>
  <rect x="676" y="164" width="188" height="108" rx="24" fill="#fff7ec" opacity="0.12"/>
  <rect x="676" y="388" width="188" height="26" rx="13" fill="#f59e0b" opacity="0.75"/>
  <rect x="676" y="430" width="142" height="18" rx="9" fill="#fff7ec" opacity="0.48"/>
  <rect x="676" y="464" width="176" height="18" rx="9" fill="#fff7ec" opacity="0.3"/>
  <rect x="676" y="498" width="118" height="18" rx="9" fill="#fff7ec" opacity="0.3"/>
</svg>